<svg xmlns="http://www.w3.org/2000/svg" viewBox="0 0 64 64"><rect x="13" y="13" width="5" height="1" fill="#dce5f2"/><rect x="18" y="13" width="3" height="1" fill="#dce6f2" fill-opacity="0.749"/><rect x="21" y="13" width="1" height="1" fill="#dbe5f1" fill-opacity="0.502"/><rect x="42" y="13" width="1" height="1" fill="#dbe5f1" fill-opacity="0.502"/><rect x="43" y="13" width="3" height="1" fill="#dce6f2" fill-opacity="0.749"/><rect x="46" y="13" width="5" height="1" fill="#dce5f2"/><rect x="13" y="14" width="2" height="1" fill="#dce5f2"/><rect x="15" y="14" width="1" height="1" fill="#d1dbea"/><rect x="16" y="14" width="6" height="1" fill="#dce5f2"/><rect x="22" y="14" width="1" height="1" fill="#dbe5f1" fill-opacity="0.502"/><rect x="41" y="14" width="1" height="1" fill="#dbe5f1" fill-opacity="0.502"/><rect x="42" y="14" width="9" height="1" fill="#dce5f2"/><rect x="13" y="15" width="2" height="1" fill="#dce5f2"/><rect x="15" y="15" width="1" height="1" fill="#aebbd3"/><rect x="16" y="15" width="1" height="1" fill="#bac6db"/><rect x="17" y="15" width="6" height="1" fill="#dce5f2"/><rect x="23" y="15" width="1" height="1" fill="#dbe5f1" fill-opacity="0.502"/><rect x="40" y="15" width="1" height="1" fill="#dbe5f1" fill-opacity="0.502"/><rect x="41" y="15" width="6" height="1" fill="#dce5f2"/><rect x="47" y="15" width="1" height="1" fill="#bac6db"/><rect x="48" y="15" width="1" height="1" fill="#aebbd3"/><rect x="49" y="15" width="1" height="1" fill="#d1dbea"/><rect x="50" y="15" width="1" height="1" fill="#dce5f2"/><rect x="13" y="16" width="2" height="1" fill="#dce5f2"/><rect x="15" y="16" width="1" height="1" fill="#bac6db"/><rect x="16" y="16" width="1" height="1" fill="#aebbd3"/><rect x="17" y="16" width="1" height="1" fill="#bac6db"/><rect x="18" y="16" width="6" height="1" fill="#dce5f2"/><rect x="24" y="16" width="1" height="1" fill="#dbe5f1" fill-opacity="0.502"/><rect x="39" y="16" width="1" height="1" fill="#dbe5f1" fill-opacity="0.502"/><rect x="40" y="16" width="6" height="1" fill="#dce5f2"/><rect x="46" y="16" width="1" height="1" fill="#bac6db"/><rect x="47" y="16" width="1" height="1" fill="#aebbd3"/><rect x="48" y="16" width="1" height="1" fill="#bac6db"/><rect x="49" y="16" width="2" height="1" fill="#dce5f2"/><rect x="13" y="17" width="3" height="1" fill="#dce5f2"/><rect x="16" y="17" width="1" height="1" fill="#bac6db"/><rect x="17" y="17" width="1" height="1" fill="#aebbd3"/><rect x="18" y="17" width="1" height="1" fill="#bac6db"/><rect x="19" y="17" width="6" height="1" fill="#dce5f2"/><rect x="25" y="17" width="1" height="1" fill="#dbe5f1" fill-opacity="0.502"/><rect x="38" y="17" width="1" height="1" fill="#dbe5f1" fill-opacity="0.502"/><rect x="39" y="17" width="6" height="1" fill="#dce5f2"/><rect x="45" y="17" width="1" height="1" fill="#bac6db"/><rect x="46" y="17" width="1" height="1" fill="#aebbd3"/><rect x="47" y="17" width="1" height="1" fill="#bac6db"/><rect x="48" y="17" width="3" height="1" fill="#dce5f2"/><rect x="13" y="18" width="1" height="1" fill="#dce6f2" fill-opacity="0.749"/><rect x="14" y="18" width="3" height="1" fill="#dce5f2"/><rect x="17" y="18" width="1" height="1" fill="#bac6db"/><rect x="18" y="18" width="1" height="1" fill="#aebbd3"/><rect x="19" y="18" width="1" height="1" fill="#bac6db"/><rect x="20" y="18" width="6" height="1" fill="#dce5f2"/><rect x="26" y="18" width="1" height="1" fill="#dbe5f1" fill-opacity="0.502"/><rect x="37" y="18" width="1" height="1" fill="#dbe5f1" fill-opacity="0.502"/><rect x="38" y="18" width="6" height="1" fill="#dce5f2"/><rect x="44" y="18" width="1" height="1" fill="#bac6db"/><rect x="45" y="18" width="1" height="1" fill="#aebbd3"/><rect x="46" y="18" width="1" height="1" fill="#bac6db"/><rect x="47" y="18" width="3" height="1" fill="#dce5f2"/><rect x="50" y="18" width="1" height="1" fill="#dce6f2" fill-opacity="0.749"/><rect x="13" y="19" width="1" height="1" fill="#dce6f2" fill-opacity="0.749"/><rect x="14" y="19" width="4" height="1" fill="#dce5f2"/><rect x="18" y="19" width="1" height="1" fill="#bac6db"/><rect x="19" y="19" width="1" height="1" fill="#aebbd3"/><rect x="20" y="19" width="1" height="1" fill="#bac6db"/><rect x="21" y="19" width="6" height="1" fill="#dce5f2"/><rect x="27" y="19" width="1" height="1" fill="#dbe5f1" fill-opacity="0.502"/><rect x="36" y="19" width="1" height="1" fill="#dbe5f1" fill-opacity="0.502"/><rect x="37" y="19" width="6" height="1" fill="#dce5f2"/><rect x="43" y="19" width="1" height="1" fill="#bac6db"/><rect x="44" y="19" width="1" height="1" fill="#aebbd3"/><rect x="45" y="19" width="1" height="1" fill="#bac6db"/><rect x="46" y="19" width="4" height="1" fill="#dce5f2"/><rect x="50" y="19" width="1" height="1" fill="#dce6f2" fill-opacity="0.749"/><rect x="13" y="20" width="1" height="1" fill="#dce6f2" fill-opacity="0.749"/><rect x="14" y="20" width="5" height="1" fill="#dce5f2"/><rect x="19" y="20" width="1" height="1" fill="#bac6db"/><rect x="20" y="20" width="1" height="1" fill="#aebbd3"/><rect x="21" y="20" width="1" height="1" fill="#bac6db"/><rect x="22" y="20" width="6" height="1" fill="#dce5f2"/><rect x="28" y="20" width="1" height="1" fill="#dbe5f1" fill-opacity="0.502"/><rect x="35" y="20" width="1" height="1" fill="#dbe5f1" fill-opacity="0.502"/><rect x="36" y="20" width="6" height="1" fill="#dce5f2"/><rect x="42" y="20" width="1" height="1" fill="#bac6db"/><rect x="43" y="20" width="1" height="1" fill="#aebbd3"/><rect x="44" y="20" width="1" height="1" fill="#bac6db"/><rect x="45" y="20" width="5" height="1" fill="#dce5f2"/><rect x="50" y="20" width="1" height="1" fill="#dce6f2" fill-opacity="0.749"/><rect x="13" y="21" width="1" height="1" fill="#dbe5f1" fill-opacity="0.502"/><rect x="14" y="21" width="6" height="1" fill="#dce5f2"/><rect x="20" y="21" width="1" height="1" fill="#bac6db"/><rect x="21" y="21" width="1" height="1" fill="#aebbd3"/><rect x="22" y="21" width="1" height="1" fill="#bac6db"/><rect x="23" y="21" width="6" height="1" fill="#dce5f2"/><rect x="29" y="21" width="1" height="1" fill="#dbe5f1" fill-opacity="0.502"/><rect x="34" y="21" width="1" height="1" fill="#dbe5f1" fill-opacity="0.502"/><rect x="35" y="21" width="6" height="1" fill="#dce5f2"/><rect x="41" y="21" width="1" height="1" fill="#bac6db"/><rect x="42" y="21" width="1" height="1" fill="#aebbd3"/><rect x="43" y="21" width="1" height="1" fill="#bac6db"/><rect x="44" y="21" width="6" height="1" fill="#dce5f2"/><rect x="50" y="21" width="1" height="1" fill="#dbe5f1" fill-opacity="0.502"/><rect x="14" y="22" width="1" height="1" fill="#dbe5f1" fill-opacity="0.502"/><rect x="15" y="22" width="6" height="1" fill="#dce5f2"/><rect x="21" y="22" width="1" height="1" fill="#bac6db"/><rect x="22" y="22" width="1" height="1" fill="#aebbd3"/><rect x="23" y="22" width="1" height="1" fill="#bac6db"/><rect x="24" y="22" width="6" height="1" fill="#dce5f2"/><rect x="30" y="22" width="1" height="1" fill="#dbe5f1" fill-opacity="0.502"/><rect x="33" y="22" width="1" height="1" fill="#dbe5f1" fill-opacity="0.502"/><rect x="34" y="22" width="6" height="1" fill="#dce5f2"/><rect x="40" y="22" width="1" height="1" fill="#bac6db"/><rect x="41" y="22" width="1" height="1" fill="#aebbd3"/><rect x="42" y="22" width="1" height="1" fill="#bac6db"/><rect x="43" y="22" width="6" height="1" fill="#dce5f2"/><rect x="49" y="22" width="1" height="1" fill="#dbe5f1" fill-opacity="0.502"/><rect x="15" y="23" width="1" height="1" fill="#dbe5f1" fill-opacity="0.502"/><rect x="16" y="23" width="6" height="1" fill="#dce5f2"/><rect x="22" y="23" width="1" height="1" fill="#bac6db"/><rect x="23" y="23" width="1" height="1" fill="#aebbd3"/><rect x="24" y="23" width="1" height="1" fill="#bac6db"/><rect x="25" y="23" width="6" height="1" fill="#dce5f2"/><rect x="31" y="23" width="2" height="1" fill="#dbe5f1" fill-opacity="0.502"/><rect x="33" y="23" width="6" height="1" fill="#dce5f2"/><rect x="39" y="23" width="1" height="1" fill="#bac6db"/><rect x="40" y="23" width="1" height="1" fill="#aebbd3"/><rect x="41" y="23" width="1" height="1" fill="#bac6db"/><rect x="42" y="23" width="6" height="1" fill="#dce5f2"/><rect x="48" y="23" width="1" height="1" fill="#dbe5f1" fill-opacity="0.502"/><rect x="16" y="24" width="1" height="1" fill="#dbe5f1" fill-opacity="0.502"/><rect x="17" y="24" width="6" height="1" fill="#dce5f2"/><rect x="23" y="24" width="1" height="1" fill="#bac6db"/><rect x="24" y="24" width="1" height="1" fill="#aebbd3"/><rect x="25" y="24" width="1" height="1" fill="#bac6db"/><rect x="26" y="24" width="12" height="1" fill="#dce5f2"/><rect x="38" y="24" width="1" height="1" fill="#bac6db"/><rect x="39" y="24" width="1" height="1" fill="#aebbd3"/><rect x="40" y="24" width="1" height="1" fill="#bac6db"/><rect x="41" y="24" width="6" height="1" fill="#dce5f2"/><rect x="47" y="24" width="1" height="1" fill="#dbe5f1" fill-opacity="0.502"/><rect x="17" y="25" width="1" height="1" fill="#dbe5f1" fill-opacity="0.502"/><rect x="18" y="25" width="6" height="1" fill="#dce5f2"/><rect x="24" y="25" width="1" height="1" fill="#bac6db"/><rect x="25" y="25" width="1" height="1" fill="#aebbd3"/><rect x="26" y="25" width="1" height="1" fill="#bac6db"/><rect x="27" y="25" width="10" height="1" fill="#dce5f2"/><rect x="37" y="25" width="1" height="1" fill="#bac6db"/><rect x="38" y="25" width="1" height="1" fill="#aebbd3"/><rect x="39" y="25" width="1" height="1" fill="#bac6db"/><rect x="40" y="25" width="6" height="1" fill="#dce5f2"/><rect x="46" y="25" width="1" height="1" fill="#dbe5f1" fill-opacity="0.502"/><rect x="18" y="26" width="1" height="1" fill="#dbe5f1" fill-opacity="0.502"/><rect x="19" y="26" width="6" height="1" fill="#dce5f2"/><rect x="25" y="26" width="1" height="1" fill="#bac6db"/><rect x="26" y="26" width="1" height="1" fill="#aebbd3"/><rect x="27" y="26" width="1" height="1" fill="#bac6db"/><rect x="28" y="26" width="8" height="1" fill="#dce5f2"/><rect x="36" y="26" width="1" height="1" fill="#bac6db"/><rect x="37" y="26" width="1" height="1" fill="#aebbd3"/><rect x="38" y="26" width="1" height="1" fill="#bac6db"/><rect x="39" y="26" width="6" height="1" fill="#dce5f2"/><rect x="45" y="26" width="1" height="1" fill="#dbe5f1" fill-opacity="0.502"/><rect x="19" y="27" width="1" height="1" fill="#dbe5f1" fill-opacity="0.502"/><rect x="20" y="27" width="6" height="1" fill="#dce5f2"/><rect x="26" y="27" width="1" height="1" fill="#bac6db"/><rect x="27" y="27" width="1" height="1" fill="#aebbd3"/><rect x="28" y="27" width="1" height="1" fill="#bac6db"/><rect x="29" y="27" width="6" height="1" fill="#dce5f2"/><rect x="35" y="27" width="1" height="1" fill="#cbd5e7"/><rect x="36" y="27" width="1" height="1" fill="#aebbd3"/><rect x="37" y="27" width="1" height="1" fill="#bac6db"/><rect x="38" y="27" width="6" height="1" fill="#dce5f2"/><rect x="44" y="27" width="1" height="1" fill="#dbe5f1" fill-opacity="0.502"/><rect x="17" y="28" width="1" height="1" fill="#ff9f00" fill-opacity="0.031"/><rect x="18" y="28" width="1" height="1" fill="#ff9500" fill-opacity="0.357"/><rect x="19" y="28" width="1" height="1" fill="#ff9600" fill-opacity="0.655"/><rect x="20" y="28" width="1" height="1" fill="#e9c693" fill-opacity="0.824"/><rect x="21" y="28" width="6" height="1" fill="#dce5f2"/><rect x="27" y="28" width="1" height="1" fill="#bac6db"/><rect x="28" y="28" width="1" height="1" fill="#aebbd3"/><rect x="29" y="28" width="1" height="1" fill="#bac6db"/><rect x="30" y="28" width="6" height="1" fill="#dce5f2"/><rect x="36" y="28" width="1" height="1" fill="#cbd5e7"/><rect x="37" y="28" width="4" height="1" fill="#dce5f2"/><rect x="41" y="28" width="1" height="1" fill="#dde4ef"/><rect x="42" y="28" width="1" height="1" fill="#e8caa1"/><rect x="43" y="28" width="1" height="1" fill="#f7a634" fill-opacity="0.824"/><rect x="44" y="28" width="1" height="1" fill="#ff9600" fill-opacity="0.655"/><rect x="45" y="28" width="1" height="1" fill="#ff9500" fill-opacity="0.357"/><rect x="46" y="28" width="1" height="1" fill="#ff9f00" fill-opacity="0.031"/><rect x="17" y="29" width="1" height="1" fill="#ff9600" fill-opacity="0.467"/><rect x="18" y="29" width="3" height="1" fill="#ff9500"/><rect x="21" y="29" width="1" height="1" fill="#edbe79" fill-opacity="0.996"/><rect x="22" y="29" width="6" height="1" fill="#dce5f2"/><rect x="28" y="29" width="1" height="1" fill="#bac6db"/><rect x="29" y="29" width="1" height="1" fill="#aebbd3"/><rect x="30" y="29" width="1" height="1" fill="#bac6db"/><rect x="31" y="29" width="10" height="1" fill="#dce5f2"/><rect x="41" y="29" width="1" height="1" fill="#ecc082"/><rect x="42" y="29" width="1" height="1" fill="#ff9601" fill-opacity="0.996"/><rect x="43" y="29" width="3" height="1" fill="#ff9500"/><rect x="46" y="29" width="1" height="1" fill="#ff9600" fill-opacity="0.467"/><rect x="17" y="30" width="1" height="1" fill="#ff9500" fill-opacity="0.847"/><rect x="18" y="30" width="4" height="1" fill="#ff9500"/><rect x="22" y="30" width="1" height="1" fill="#edbe7b" fill-opacity="0.984"/><rect x="23" y="30" width="6" height="1" fill="#dce5f2"/><rect x="29" y="30" width="1" height="1" fill="#bac6db"/><rect x="30" y="30" width="1" height="1" fill="#aebbd3"/><rect x="31" y="30" width="1" height="1" fill="#bac6db"/><rect x="32" y="30" width="8" height="1" fill="#dce5f2"/><rect x="40" y="30" width="1" height="1" fill="#ecc082"/><rect x="41" y="30" width="1" height="1" fill="#fe9604" fill-opacity="0.984"/><rect x="42" y="30" width="4" height="1" fill="#ff9500"/><rect x="46" y="30" width="1" height="1" fill="#ff9500" fill-opacity="0.847"/><rect x="17" y="31" width="1" height="1" fill="#ff9500" fill-opacity="0.933"/><rect x="18" y="31" width="5" height="1" fill="#ff9500"/><rect x="23" y="31" width="1" height="1" fill="#edbe7b" fill-opacity="0.984"/><rect x="24" y="31" width="6" height="1" fill="#dce5f2"/><rect x="30" y="31" width="1" height="1" fill="#bac6db"/><rect x="31" y="31" width="1" height="1" fill="#aebbd3"/><rect x="32" y="31" width="1" height="1" fill="#bac6db"/><rect x="33" y="31" width="6" height="1" fill="#dce5f2"/><rect x="39" y="31" width="1" height="1" fill="#ecc082"/><rect x="40" y="31" width="1" height="1" fill="#fe9604" fill-opacity="0.984"/><rect x="41" y="31" width="5" height="1" fill="#ff9500"/><rect x="46" y="31" width="1" height="1" fill="#ff9500" fill-opacity="0.933"/><rect x="17" y="32" width="1" height="1" fill="#ff9500" fill-opacity="0.651"/><rect x="18" y="32" width="6" height="1" fill="#ff9500"/><rect x="24" y="32" width="1" height="1" fill="#edbf7c" fill-opacity="0.996"/><rect x="25" y="32" width="6" height="1" fill="#dce5f2"/><rect x="31" y="32" width="1" height="1" fill="#bac6db"/><rect x="32" y="32" width="1" height="1" fill="#aebbd3"/><rect x="33" y="32" width="1" height="1" fill="#bac6db"/><rect x="34" y="32" width="4" height="1" fill="#dce5f2"/><rect x="38" y="32" width="1" height="1" fill="#ecc082"/><rect x="39" y="32" width="1" height="1" fill="#fe9807" fill-opacity="0.996"/><rect x="40" y="32" width="6" height="1" fill="#ff9500"/><rect x="46" y="32" width="1" height="1" fill="#ff9500" fill-opacity="0.651"/><rect x="17" y="33" width="1" height="1" fill="#ff9500" fill-opacity="0.282"/><rect x="18" y="33" width="1" height="1" fill="#ff9500" fill-opacity="0.776"/><rect x="19" y="33" width="6" height="1" fill="#ff9500"/><rect x="25" y="33" width="1" height="1" fill="#edbf7c" fill-opacity="0.996"/><rect x="26" y="33" width="6" height="1" fill="#dce5f2"/><rect x="32" y="33" width="1" height="1" fill="#bac6db"/><rect x="33" y="33" width="1" height="1" fill="#aebbd3"/><rect x="34" y="33" width="1" height="1" fill="#bac6db"/><rect x="35" y="33" width="2" height="1" fill="#dce5f2"/><rect x="37" y="33" width="1" height="1" fill="#ecc082"/><rect x="38" y="33" width="1" height="1" fill="#fe9807" fill-opacity="0.996"/><rect x="39" y="33" width="6" height="1" fill="#ff9500"/><rect x="45" y="33" width="1" height="1" fill="#ff9500" fill-opacity="0.776"/><rect x="46" y="33" width="1" height="1" fill="#ff9500" fill-opacity="0.282"/><rect x="18" y="34" width="1" height="1" fill="#ff9300" fill-opacity="0.278"/><rect x="19" y="34" width="1" height="1" fill="#ff9500" fill-opacity="0.776"/><rect x="20" y="34" width="6" height="1" fill="#ff9500"/><rect x="26" y="34" width="1" height="1" fill="#edbf7c" fill-opacity="0.996"/><rect x="27" y="34" width="6" height="1" fill="#dce5f2"/><rect x="33" y="34" width="1" height="1" fill="#bac6db"/><rect x="34" y="34" width="1" height="1" fill="#aebbd3"/><rect x="35" y="34" width="1" height="1" fill="#bac6db"/><rect x="36" y="34" width="1" height="1" fill="#ecc082"/><rect x="37" y="34" width="1" height="1" fill="#fe9807" fill-opacity="0.996"/><rect x="38" y="34" width="6" height="1" fill="#ff9500"/><rect x="44" y="34" width="1" height="1" fill="#ff9500" fill-opacity="0.776"/><rect x="45" y="34" width="1" height="1" fill="#ff9300" fill-opacity="0.278"/><rect x="19" y="35" width="1" height="1" fill="#ff9300" fill-opacity="0.278"/><rect x="20" y="35" width="1" height="1" fill="#ff9500" fill-opacity="0.776"/><rect x="21" y="35" width="6" height="1" fill="#ff9500"/><rect x="27" y="35" width="1" height="1" fill="#ecbe7d"/><rect x="28" y="35" width="6" height="1" fill="#dce5f2"/><rect x="34" y="35" width="1" height="1" fill="#bac6db"/><rect x="35" y="35" width="1" height="1" fill="#d4a971"/><rect x="36" y="35" width="1" height="1" fill="#fc9607"/><rect x="37" y="35" width="6" height="1" fill="#ff9500"/><rect x="43" y="35" width="1" height="1" fill="#ff9500" fill-opacity="0.776"/><rect x="44" y="35" width="1" height="1" fill="#ff9300" fill-opacity="0.278"/><rect x="20" y="36" width="1" height="1" fill="#ff9300" fill-opacity="0.278"/><rect x="21" y="36" width="1" height="1" fill="#ff9500" fill-opacity="0.776"/><rect x="22" y="36" width="6" height="1" fill="#ff9500"/><rect x="28" y="36" width="1" height="1" fill="#ecbe7d"/><rect x="29" y="36" width="5" height="1" fill="#dce5f2"/><rect x="34" y="36" width="1" height="1" fill="#ecc082"/><rect x="35" y="36" width="1" height="1" fill="#fd9707"/><rect x="36" y="36" width="6" height="1" fill="#ff9500"/><rect x="42" y="36" width="1" height="1" fill="#ff9500" fill-opacity="0.776"/><rect x="43" y="36" width="1" height="1" fill="#ff9300" fill-opacity="0.278"/><rect x="21" y="37" width="1" height="1" fill="#ff9300" fill-opacity="0.278"/><rect x="22" y="37" width="1" height="1" fill="#ff9500" fill-opacity="0.776"/><rect x="23" y="37" width="6" height="1" fill="#ff9500"/><rect x="29" y="37" width="1" height="1" fill="#edbf7c" fill-opacity="0.996"/><rect x="30" y="37" width="3" height="1" fill="#dce5f2"/><rect x="33" y="37" width="1" height="1" fill="#ecc082"/><rect x="34" y="37" width="1" height="1" fill="#fe9807" fill-opacity="0.996"/><rect x="35" y="37" width="6" height="1" fill="#ff9500"/><rect x="41" y="37" width="1" height="1" fill="#ff9500" fill-opacity="0.776"/><rect x="42" y="37" width="1" height="1" fill="#ff9300" fill-opacity="0.278"/><rect x="20" y="38" width="1" height="1" fill="#26334d" fill-opacity="0.078"/><rect x="21" y="38" width="1" height="1" fill="#22314b" fill-opacity="0.267"/><rect x="22" y="38" width="1" height="1" fill="#895d28" fill-opacity="0.451"/><rect x="23" y="38" width="1" height="1" fill="#ff9500" fill-opacity="0.776"/><rect x="24" y="38" width="6" height="1" fill="#ff9500"/><rect x="30" y="38" width="1" height="1" fill="#edbf7c" fill-opacity="0.996"/><rect x="31" y="38" width="1" height="1" fill="#dce5f2"/><rect x="32" y="38" width="1" height="1" fill="#ecc082"/><rect x="33" y="38" width="1" height="1" fill="#fe9807" fill-opacity="0.996"/><rect x="34" y="38" width="6" height="1" fill="#ff9500"/><rect x="40" y="38" width="1" height="1" fill="#ff9500" fill-opacity="0.776"/><rect x="41" y="38" width="1" height="1" fill="#895d28" fill-opacity="0.451"/><rect x="42" y="38" width="1" height="1" fill="#21304a" fill-opacity="0.271"/><rect x="43" y="38" width="1" height="1" fill="#26334d" fill-opacity="0.078"/><rect x="19" y="39" width="1" height="1" fill="#222f4b" fill-opacity="0.467"/><rect x="20" y="39" width="1" height="1" fill="#232f4b" fill-opacity="0.890"/><rect x="21" y="39" width="1" height="1" fill="#232f4b"/><rect x="22" y="39" width="1" height="1" fill="#232f4b" fill-opacity="0.961"/><rect x="23" y="39" width="1" height="1" fill="#3d3b42" fill-opacity="0.769"/><rect x="24" y="39" width="1" height="1" fill="#b67419" fill-opacity="0.839"/><rect x="25" y="39" width="6" height="1" fill="#ff9500"/><rect x="31" y="39" width="1" height="1" fill="#f6ac42" fill-opacity="0.996"/><rect x="32" y="39" width="1" height="1" fill="#fe9807" fill-opacity="0.996"/><rect x="33" y="39" width="6" height="1" fill="#ff9500"/><rect x="39" y="39" width="1" height="1" fill="#b67419" fill-opacity="0.839"/><rect x="40" y="39" width="1" height="1" fill="#3d3b42" fill-opacity="0.769"/><rect x="41" y="39" width="1" height="1" fill="#232f4b" fill-opacity="0.961"/><rect x="42" y="39" width="1" height="1" fill="#232f4b"/><rect x="43" y="39" width="1" height="1" fill="#232f4b" fill-opacity="0.890"/><rect x="44" y="39" width="1" height="1" fill="#222f4b" fill-opacity="0.467"/><rect x="18" y="40" width="1" height="1" fill="#242e4c" fill-opacity="0.475"/><rect x="19" y="40" width="1" height="1" fill="#232f4b" fill-opacity="0.984"/><rect x="20" y="40" width="4" height="1" fill="#232f4b"/><rect x="24" y="40" width="1" height="1" fill="#3d3b42" fill-opacity="0.769"/><rect x="25" y="40" width="1" height="1" fill="#ff9500" fill-opacity="0.776"/><rect x="26" y="40" width="12" height="1" fill="#ff9500"/><rect x="38" y="40" width="1" height="1" fill="#ff9500" fill-opacity="0.776"/><rect x="39" y="40" width="1" height="1" fill="#3d3b42" fill-opacity="0.769"/><rect x="40" y="40" width="4" height="1" fill="#232f4b"/><rect x="44" y="40" width="1" height="1" fill="#232f4b" fill-opacity="0.984"/><rect x="45" y="40" width="1" height="1" fill="#242e4c" fill-opacity="0.475"/><rect x="17" y="41" width="1" height="1" fill="#242e4c" fill-opacity="0.475"/><rect x="18" y="41" width="1" height="1" fill="#232f4b" fill-opacity="0.976"/><rect x="19" y="41" width="5" height="1" fill="#232f4b"/><rect x="24" y="41" width="1" height="1" fill="#232f4b" fill-opacity="0.961"/><rect x="25" y="41" width="1" height="1" fill="#895d28" fill-opacity="0.451"/><rect x="26" y="41" width="1" height="1" fill="#ff9500" fill-opacity="0.776"/><rect x="27" y="41" width="10" height="1" fill="#ff9500"/><rect x="37" y="41" width="1" height="1" fill="#ff9500" fill-opacity="0.776"/><rect x="38" y="41" width="1" height="1" fill="#895d28" fill-opacity="0.451"/><rect x="39" y="41" width="1" height="1" fill="#232f4b" fill-opacity="0.961"/><rect x="40" y="41" width="5" height="1" fill="#232f4b"/><rect x="45" y="41" width="1" height="1" fill="#232f4b" fill-opacity="0.976"/><rect x="46" y="41" width="1" height="1" fill="#242e4c" fill-opacity="0.475"/><rect x="16" y="42" width="1" height="1" fill="#242f4c" fill-opacity="0.471"/><rect x="17" y="42" width="1" height="1" fill="#232f4b" fill-opacity="0.976"/><rect x="18" y="42" width="7" height="1" fill="#232f4b"/><rect x="25" y="42" width="1" height="1" fill="#21304a" fill-opacity="0.271"/><rect x="26" y="42" width="1" height="1" fill="#ff9300" fill-opacity="0.278"/><rect x="27" y="42" width="1" height="1" fill="#ff9500" fill-opacity="0.776"/><rect x="28" y="42" width="8" height="1" fill="#ff9500"/><rect x="36" y="42" width="1" height="1" fill="#ff9500" fill-opacity="0.776"/><rect x="37" y="42" width="1" height="1" fill="#ff9300" fill-opacity="0.278"/><rect x="38" y="42" width="1" height="1" fill="#22314b" fill-opacity="0.267"/><rect x="39" y="42" width="7" height="1" fill="#232f4b"/><rect x="46" y="42" width="1" height="1" fill="#232f4b" fill-opacity="0.976"/><rect x="47" y="42" width="1" height="1" fill="#242f4c" fill-opacity="0.471"/><rect x="15" y="43" width="1" height="1" fill="#232f49" fill-opacity="0.341"/><rect x="16" y="43" width="1" height="1" fill="#232f4b" fill-opacity="0.988"/><rect x="17" y="43" width="7" height="1" fill="#232f4b"/><rect x="24" y="43" width="1" height="1" fill="#232f4b" fill-opacity="0.890"/><rect x="25" y="43" width="1" height="1" fill="#26334d" fill-opacity="0.078"/><rect x="27" y="43" width="1" height="1" fill="#ff9300" fill-opacity="0.278"/><rect x="28" y="43" width="1" height="1" fill="#ff9500" fill-opacity="0.922"/><rect x="29" y="43" width="6" height="1" fill="#ff9500"/><rect x="35" y="43" width="1" height="1" fill="#ff9500" fill-opacity="0.922"/><rect x="36" y="43" width="1" height="1" fill="#ff9300" fill-opacity="0.278"/><rect x="38" y="43" width="1" height="1" fill="#26334d" fill-opacity="0.078"/><rect x="39" y="43" width="1" height="1" fill="#232f4b" fill-opacity="0.890"/><rect x="40" y="43" width="7" height="1" fill="#232f4b"/><rect x="47" y="43" width="1" height="1" fill="#232f4b" fill-opacity="0.988"/><rect x="48" y="43" width="1" height="1" fill="#232f49" fill-opacity="0.341"/><rect x="15" y="44" width="1" height="1" fill="#242f4b" fill-opacity="0.533"/><rect x="16" y="44" width="7" height="1" fill="#232f4b"/><rect x="23" y="44" width="1" height="1" fill="#232f4b" fill-opacity="0.984"/><rect x="24" y="44" width="1" height="1" fill="#222f4b" fill-opacity="0.467"/><rect x="28" y="44" width="1" height="1" fill="#ff9500" fill-opacity="0.753"/><rect x="29" y="44" width="6" height="1" fill="#ff9500"/><rect x="35" y="44" width="1" height="1" fill="#ff9600" fill-opacity="0.749"/><rect x="39" y="44" width="1" height="1" fill="#222f4b" fill-opacity="0.467"/><rect x="40" y="44" width="1" height="1" fill="#232f4b" fill-opacity="0.984"/><rect x="41" y="44" width="7" height="1" fill="#232f4b"/><rect x="48" y="44" width="1" height="1" fill="#242f4b" fill-opacity="0.533"/><rect x="12" y="45" width="1" height="1" fill="#ffca40" fill-opacity="0.094"/><rect x="13" y="45" width="1" height="1" fill="#ffc73d" fill-opacity="0.376"/><rect x="14" y="45" width="1" height="1" fill="#ffca3e" fill-opacity="0.486"/><rect x="15" y="45" width="1" height="1" fill="#9f8643" fill-opacity="0.741"/><rect x="16" y="45" width="1" height="1" fill="#585448"/><rect x="17" y="45" width="5" height="1" fill="#232f4b"/><rect x="22" y="45" width="1" height="1" fill="#232f4b" fill-opacity="0.976"/><rect x="23" y="45" width="1" height="1" fill="#242e4c" fill-opacity="0.475"/><rect x="28" y="45" width="1" height="1" fill="#ff9500" fill-opacity="0.357"/><rect x="29" y="45" width="6" height="1" fill="#ff9500"/><rect x="35" y="45" width="1" height="1" fill="#ff9500" fill-opacity="0.357"/><rect x="40" y="45" width="1" height="1" fill="#242e4c" fill-opacity="0.475"/><rect x="41" y="45" width="1" height="1" fill="#232f4b" fill-opacity="0.976"/><rect x="42" y="45" width="5" height="1" fill="#232f4b"/><rect x="47" y="45" width="1" height="1" fill="#585448"/><rect x="48" y="45" width="1" height="1" fill="#9f8643" fill-opacity="0.741"/><rect x="49" y="45" width="1" height="1" fill="#ffca3e" fill-opacity="0.486"/><rect x="50" y="45" width="1" height="1" fill="#ffc73d" fill-opacity="0.376"/><rect x="51" y="45" width="1" height="1" fill="#ffca40" fill-opacity="0.094"/><rect x="11" y="46" width="1" height="1" fill="#ffc83c" fill-opacity="0.200"/><rect x="12" y="46" width="1" height="1" fill="#ffc83d" fill-opacity="0.722"/><rect x="13" y="46" width="3" height="1" fill="#ffc83d"/><rect x="16" y="46" width="1" height="1" fill="#dcb03f"/><rect x="17" y="46" width="1" height="1" fill="#6d6346"/><rect x="18" y="46" width="3" height="1" fill="#232f4b"/><rect x="21" y="46" width="1" height="1" fill="#232f4b" fill-opacity="0.976"/><rect x="22" y="46" width="1" height="1" fill="#242e4c" fill-opacity="0.475"/><rect x="28" y="46" width="1" height="1" fill="#ff9f00" fill-opacity="0.031"/><rect x="29" y="46" width="1" height="1" fill="#ff9600" fill-opacity="0.467"/><rect x="30" y="46" width="1" height="1" fill="#ff9500" fill-opacity="0.890"/><rect x="31" y="46" width="1" height="1" fill="#ff9600" fill-opacity="0.976"/><rect x="32" y="46" width="1" height="1" fill="#ff9400" fill-opacity="0.976"/><rect x="33" y="46" width="1" height="1" fill="#ff9500" fill-opacity="0.890"/><rect x="34" y="46" width="1" height="1" fill="#ff9600" fill-opacity="0.467"/><rect x="35" y="46" width="1" height="1" fill="#ff9f00" fill-opacity="0.031"/><rect x="41" y="46" width="1" height="1" fill="#242e4c" fill-opacity="0.475"/><rect x="42" y="46" width="1" height="1" fill="#232f4b" fill-opacity="0.976"/><rect x="43" y="46" width="3" height="1" fill="#232f4b"/><rect x="46" y="46" width="1" height="1" fill="#6d6346"/><rect x="47" y="46" width="1" height="1" fill="#dcb03f"/><rect x="48" y="46" width="3" height="1" fill="#ffc83d"/><rect x="51" y="46" width="1" height="1" fill="#ffc83d" fill-opacity="0.722"/><rect x="52" y="46" width="1" height="1" fill="#ffc83c" fill-opacity="0.200"/><rect x="11" y="47" width="1" height="1" fill="#ffc73d" fill-opacity="0.592"/><rect x="12" y="47" width="5" height="1" fill="#ffc83d"/><rect x="17" y="47" width="1" height="1" fill="#dcb03f"/><rect x="18" y="47" width="1" height="1" fill="#585448"/><rect x="19" y="47" width="1" height="1" fill="#232f4b"/><rect x="20" y="47" width="1" height="1" fill="#232f4b" fill-opacity="0.988"/><rect x="21" y="47" width="1" height="1" fill="#242f4c" fill-opacity="0.471"/><rect x="31" y="47" width="2" height="1" fill="#ff8e00" fill-opacity="0.035"/><rect x="42" y="47" width="1" height="1" fill="#242f4c" fill-opacity="0.471"/><rect x="43" y="47" width="1" height="1" fill="#232f4b" fill-opacity="0.988"/><rect x="44" y="47" width="1" height="1" fill="#232f4b"/><rect x="45" y="47" width="1" height="1" fill="#585448"/><rect x="46" y="47" width="1" height="1" fill="#dcb03f"/><rect x="47" y="47" width="5" height="1" fill="#ffc83d"/><rect x="52" y="47" width="1" height="1" fill="#ffc73d" fill-opacity="0.592"/><rect x="10" y="48" width="1" height="1" fill="#ffc43b" fill-opacity="0.051"/><rect x="11" y="48" width="1" height="1" fill="#ffc83d" fill-opacity="0.969"/><rect x="12" y="48" width="6" height="1" fill="#ffc83d"/><rect x="18" y="48" width="1" height="1" fill="#9f8643" fill-opacity="0.741"/><rect x="19" y="48" width="1" height="1" fill="#242f4b" fill-opacity="0.533"/><rect x="20" y="48" width="1" height="1" fill="#232f49" fill-opacity="0.341"/><rect x="43" y="48" width="1" height="1" fill="#232f49" fill-opacity="0.341"/><rect x="44" y="48" width="1" height="1" fill="#242f4b" fill-opacity="0.533"/><rect x="45" y="48" width="1" height="1" fill="#9f8643" fill-opacity="0.741"/><rect x="46" y="48" width="6" height="1" fill="#ffc83d"/><rect x="52" y="48" width="1" height="1" fill="#ffc73d" fill-opacity="0.973"/><rect x="53" y="48" width="1" height="1" fill="#ffc43b" fill-opacity="0.051"/><rect x="10" y="49" width="1" height="1" fill="#ffcb3c" fill-opacity="0.133"/><rect x="11" y="49" width="7" height="1" fill="#ffc83d"/><rect x="18" y="49" width="1" height="1" fill="#ffca3e" fill-opacity="0.486"/><rect x="45" y="49" width="1" height="1" fill="#ffca3e" fill-opacity="0.486"/><rect x="46" y="49" width="7" height="1" fill="#ffc83d"/><rect x="53" y="49" width="1" height="1" fill="#ffcb3c" fill-opacity="0.133"/><rect x="10" y="50" width="1" height="1" fill="#ffc43b" fill-opacity="0.102"/><rect x="11" y="50" width="1" height="1" fill="#ffc83d" fill-opacity="0.784"/><rect x="12" y="50" width="6" height="1" fill="#ffc83d"/><rect x="18" y="50" width="1" height="1" fill="#ffc73d" fill-opacity="0.376"/><rect x="45" y="50" width="1" height="1" fill="#ffc73d" fill-opacity="0.376"/><rect x="46" y="50" width="6" height="1" fill="#ffc83d"/><rect x="52" y="50" width="1" height="1" fill="#ffc83d" fill-opacity="0.784"/><rect x="53" y="50" width="1" height="1" fill="#ffcc3d" fill-opacity="0.098"/><rect x="11" y="51" width="1" height="1" fill="#ffc83e" fill-opacity="0.471"/><rect x="12" y="51" width="5" height="1" fill="#ffc83d"/><rect x="17" y="51" width="1" height="1" fill="#ffc83d" fill-opacity="0.722"/><rect x="18" y="51" width="1" height="1" fill="#ffca40" fill-opacity="0.094"/><rect x="45" y="51" width="1" height="1" fill="#ffca40" fill-opacity="0.094"/><rect x="46" y="51" width="1" height="1" fill="#ffc83d" fill-opacity="0.722"/><rect x="47" y="51" width="5" height="1" fill="#ffc83d"/><rect x="52" y="51" width="1" height="1" fill="#ffc83e" fill-opacity="0.471"/><rect x="11" y="52" width="1" height="1" fill="#ffc840" fill-opacity="0.110"/><rect x="12" y="52" width="1" height="1" fill="#ffc83e" fill-opacity="0.471"/><rect x="13" y="52" width="1" height="1" fill="#ffc83d" fill-opacity="0.784"/><rect x="14" y="52" width="1" height="1" fill="#ffc83d"/><rect x="15" y="52" width="1" height="1" fill="#ffc73d" fill-opacity="0.973"/><rect x="16" y="52" width="1" height="1" fill="#ffc73d" fill-opacity="0.592"/><rect x="17" y="52" width="1" height="1" fill="#ffc83c" fill-opacity="0.200"/><rect x="46" y="52" width="1" height="1" fill="#ffc83c" fill-opacity="0.200"/><rect x="47" y="52" width="1" height="1" fill="#ffc73d" fill-opacity="0.592"/><rect x="48" y="52" width="1" height="1" fill="#ffc83d" fill-opacity="0.969"/><rect x="49" y="52" width="1" height="1" fill="#ffc83d"/><rect x="50" y="52" width="1" height="1" fill="#ffc83d" fill-opacity="0.784"/><rect x="51" y="52" width="1" height="1" fill="#ffc83e" fill-opacity="0.471"/><rect x="52" y="52" width="1" height="1" fill="#ffc840" fill-opacity="0.110"/><rect x="13" y="53" width="1" height="1" fill="#ffcc3d" fill-opacity="0.098"/><rect x="14" y="53" width="1" height="1" fill="#ffcb3c" fill-opacity="0.133"/><rect x="15" y="53" width="1" height="1" fill="#ffc43b" fill-opacity="0.051"/><rect x="48" y="53" width="1" height="1" fill="#ffc43b" fill-opacity="0.051"/><rect x="49" y="53" width="1" height="1" fill="#ffcb3c" fill-opacity="0.133"/><rect x="50" y="53" width="1" height="1" fill="#ffc43b" fill-opacity="0.102"/></svg>