<svg xmlns="http://www.w3.org/2000/svg" viewBox="0 0 64 64"><rect x="31" y="5" width="2" height="1" fill="#ffc73c" fill-opacity="0.251"/><rect x="31" y="6" width="2" height="1" fill="#ffc83d"/><rect x="33" y="6" width="1" height="1" fill="#ffc73c" fill-opacity="0.251"/><rect x="30" y="7" width="1" height="1" fill="#ffc73e" fill-opacity="0.502"/><rect x="31" y="7" width="2" height="1" fill="#ffc83d"/><rect x="33" y="7" width="1" height="1" fill="#ffc83d" fill-opacity="0.749"/><rect x="30" y="8" width="4" height="1" fill="#ffc83d"/><rect x="34" y="8" width="1" height="1" fill="#ffc73c" fill-opacity="0.251"/><rect x="29" y="9" width="1" height="1" fill="#ffc73e" fill-opacity="0.502"/><rect x="30" y="9" width="4" height="1" fill="#ffc83d"/><rect x="34" y="9" width="1" height="1" fill="#ffc83d" fill-opacity="0.749"/><rect x="29" y="10" width="6" height="1" fill="#ffc83d"/><rect x="35" y="10" width="1" height="1" fill="#ffc73c" fill-opacity="0.251"/><rect x="28" y="11" width="1" height="1" fill="#ffc73e" fill-opacity="0.502"/><rect x="29" y="11" width="6" height="1" fill="#ffc83d"/><rect x="35" y="11" width="1" height="1" fill="#ffc83d" fill-opacity="0.749"/><rect x="22" y="12" width="1" height="1" fill="#ffc73c" fill-opacity="0.251"/><rect x="23" y="12" width="1" height="1" fill="#ffc73e" fill-opacity="0.502"/><rect x="24" y="12" width="3" height="1" fill="#ffc83d" fill-opacity="0.749"/><rect x="27" y="12" width="11" height="1" fill="#ffc83d"/><rect x="38" y="12" width="1" height="1" fill="#ffc83d" fill-opacity="0.749"/><rect x="39" y="12" width="2" height="1" fill="#ffc73e" fill-opacity="0.502"/><rect x="41" y="12" width="1" height="1" fill="#ffc73c" fill-opacity="0.251"/><rect x="21" y="13" width="1" height="1" fill="#ffc83d" fill-opacity="0.749"/><rect x="22" y="13" width="20" height="1" fill="#ffc83d"/><rect x="42" y="13" width="1" height="1" fill="#ffc83d" fill-opacity="0.749"/><rect x="21" y="14" width="1" height="1" fill="#ffc73e" fill-opacity="0.502"/><rect x="22" y="14" width="20" height="1" fill="#ffc83d"/><rect x="42" y="14" width="1" height="1" fill="#ffc73e" fill-opacity="0.502"/><rect x="22" y="15" width="1" height="1" fill="#ffc73e" fill-opacity="0.502"/><rect x="23" y="15" width="18" height="1" fill="#ffc83d"/><rect x="41" y="15" width="1" height="1" fill="#ffc73e" fill-opacity="0.502"/><rect x="23" y="16" width="1" height="1" fill="#ffc73e" fill-opacity="0.502"/><rect x="24" y="16" width="16" height="1" fill="#ffc83d"/><rect x="40" y="16" width="1" height="1" fill="#ffc73e" fill-opacity="0.502"/><rect x="24" y="17" width="1" height="1" fill="#ffc73e" fill-opacity="0.502"/><rect x="25" y="17" width="14" height="1" fill="#ffc83d"/><rect x="39" y="17" width="1" height="1" fill="#ffc73e" fill-opacity="0.502"/><rect x="25" y="18" width="1" height="1" fill="#ffc73e" fill-opacity="0.502"/><rect x="26" y="18" width="12" height="1" fill="#ffc83d"/><rect x="38" y="18" width="1" height="1" fill="#ffc73e" fill-opacity="0.502"/><rect x="25" y="19" width="1" height="1" fill="#ffc73c" fill-opacity="0.251"/><rect x="26" y="19" width="12" height="1" fill="#ffc83d"/><rect x="38" y="19" width="1" height="1" fill="#ffc73c" fill-opacity="0.251"/><rect x="25" y="20" width="1" height="1" fill="#ffc73e" fill-opacity="0.502"/><rect x="26" y="20" width="12" height="1" fill="#ffc83d"/><rect x="38" y="20" width="1" height="1" fill="#ffc73c" fill-opacity="0.251"/><rect x="25" y="21" width="1" height="1" fill="#ffc73e" fill-opacity="0.502"/><rect x="26" y="21" width="12" height="1" fill="#ffc83d"/><rect x="38" y="21" width="1" height="1" fill="#ffc73e" fill-opacity="0.502"/><rect x="25" y="22" width="1" height="1" fill="#ffc73e" fill-opacity="0.502"/><rect x="26" y="22" width="12" height="1" fill="#ffc83d"/><rect x="38" y="22" width="1" height="1" fill="#ffc83d" fill-opacity="0.749"/><rect x="25" y="23" width="1" height="1" fill="#ffc83d" fill-opacity="0.749"/><rect x="26" y="23" width="5" height="1" fill="#ffc83d"/><rect x="31" y="23" width="1" height="1" fill="#ffc83d" fill-opacity="0.749"/><rect x="32" y="23" width="1" height="1" fill="#ffc73e" fill-opacity="0.502"/><rect x="33" y="23" width="5" height="1" fill="#ffc83d"/><rect x="38" y="23" width="1" height="1" fill="#ffc83d" fill-opacity="0.749"/><rect x="25" y="24" width="4" height="1" fill="#ffc83d"/><rect x="29" y="24" width="1" height="1" fill="#ffc83d" fill-opacity="0.749"/><rect x="30" y="24" width="1" height="1" fill="#ffc73c" fill-opacity="0.251"/><rect x="33" y="24" width="2" height="1" fill="#ffc73e" fill-opacity="0.502"/><rect x="35" y="24" width="4" height="1" fill="#ffc83d"/><rect x="24" y="25" width="1" height="1" fill="#ffc73c" fill-opacity="0.251"/><rect x="25" y="25" width="2" height="1" fill="#ffc83d"/><rect x="27" y="25" width="1" height="1" fill="#ffc83d" fill-opacity="0.749"/><rect x="28" y="25" width="1" height="1" fill="#ffc73c" fill-opacity="0.251"/><rect x="35" y="25" width="1" height="1" fill="#ffc73e" fill-opacity="0.502"/><rect x="36" y="25" width="3" height="1" fill="#ffc83d"/><rect x="25" y="26" width="1" height="1" fill="#ffc73e" fill-opacity="0.502"/><rect x="26" y="26" width="1" height="1" fill="#ffc73c" fill-opacity="0.251"/><rect x="37" y="26" width="1" height="1" fill="#ffc73e" fill-opacity="0.502"/><rect x="38" y="26" width="1" height="1" fill="#ffc73c" fill-opacity="0.251"/><rect x="22" y="27" width="1" height="1" fill="#0072e3" fill-opacity="0.290"/><rect x="23" y="27" width="1" height="1" fill="#0072e4" fill-opacity="0.624"/><rect x="24" y="27" width="1" height="1" fill="#0071e3" fill-opacity="0.937"/><rect x="25" y="27" width="14" height="1" fill="#0071e3"/><rect x="39" y="27" width="1" height="1" fill="#0071e3" fill-opacity="0.937"/><rect x="40" y="27" width="1" height="1" fill="#0072e4" fill-opacity="0.624"/><rect x="41" y="27" width="1" height="1" fill="#0072e3" fill-opacity="0.290"/><rect x="21" y="28" width="1" height="1" fill="#0072e3" fill-opacity="0.290"/><rect x="22" y="28" width="1" height="1" fill="#0071e3" fill-opacity="0.937"/><rect x="23" y="28" width="18" height="1" fill="#0071e3"/><rect x="41" y="28" width="1" height="1" fill="#0071e3" fill-opacity="0.937"/><rect x="42" y="28" width="1" height="1" fill="#0072e3" fill-opacity="0.290"/><rect x="21" y="29" width="1" height="1" fill="#0072e4" fill-opacity="0.624"/><rect x="22" y="29" width="2" height="1" fill="#0071e3"/><rect x="24" y="29" width="1" height="1" fill="#0473e3"/><rect x="25" y="29" width="1" height="1" fill="#0a76e4"/><rect x="26" y="29" width="12" height="1" fill="#0071e3"/><rect x="38" y="29" width="1" height="1" fill="#0a76e4"/><rect x="39" y="29" width="1" height="1" fill="#0473e3"/><rect x="40" y="29" width="2" height="1" fill="#0071e3"/><rect x="42" y="29" width="1" height="1" fill="#0072e4" fill-opacity="0.624"/><rect x="21" y="30" width="1" height="1" fill="#0071e3" fill-opacity="0.937"/><rect x="22" y="30" width="1" height="1" fill="#0071e3"/><rect x="23" y="30" width="1" height="1" fill="#0473e3"/><rect x="24" y="30" width="1" height="1" fill="#3991e9"/><rect x="25" y="30" width="14" height="1" fill="#59a3ed"/><rect x="39" y="30" width="1" height="1" fill="#3991e9"/><rect x="40" y="30" width="1" height="1" fill="#0473e3"/><rect x="41" y="30" width="1" height="1" fill="#0071e3"/><rect x="42" y="30" width="1" height="1" fill="#0071e3" fill-opacity="0.937"/><rect x="21" y="31" width="2" height="1" fill="#0071e3"/><rect x="23" y="31" width="1" height="1" fill="#137ce5"/><rect x="24" y="31" width="16" height="1" fill="#59a3ed"/><rect x="40" y="31" width="1" height="1" fill="#137ce5"/><rect x="41" y="31" width="2" height="1" fill="#0071e3"/><rect x="21" y="32" width="2" height="1" fill="#0071e3"/><rect x="23" y="32" width="1" height="1" fill="#0e79e5"/><rect x="24" y="32" width="1" height="1" fill="#328de9"/><rect x="25" y="32" width="1" height="1" fill="#519eec"/><rect x="26" y="32" width="12" height="1" fill="#59a3ed"/><rect x="38" y="32" width="1" height="1" fill="#519eec"/><rect x="39" y="32" width="1" height="1" fill="#328de9"/><rect x="40" y="32" width="1" height="1" fill="#0e79e5"/><rect x="41" y="32" width="2" height="1" fill="#0071e3"/><rect x="21" y="33" width="4" height="1" fill="#0071e3"/><rect x="25" y="33" width="1" height="1" fill="#0373e4"/><rect x="26" y="33" width="12" height="1" fill="#0071e3"/><rect x="38" y="33" width="1" height="1" fill="#0373e4"/><rect x="39" y="33" width="4" height="1" fill="#0071e3"/><rect x="21" y="34" width="22" height="1" fill="#0071e3"/><rect x="7" y="35" width="1" height="1" fill="#55aaff" fill-opacity="0.035"/><rect x="8" y="35" width="1" height="1" fill="#4e9deb" fill-opacity="0.051"/><rect x="18" y="35" width="1" height="1" fill="#58a7f7" fill-opacity="0.125"/><rect x="21" y="35" width="22" height="1" fill="#0071e3"/><rect x="6" y="36" width="1" height="1" fill="#58a7f3" fill-opacity="0.251"/><rect x="7" y="36" width="1" height="1" fill="#59a7f4" fill-opacity="0.651"/><rect x="8" y="36" width="10" height="1" fill="#5aa7f5"/><rect x="18" y="36" width="1" height="1" fill="#5aa8f5" fill-opacity="0.937"/><rect x="19" y="36" width="1" height="1" fill="#5aa8f5" fill-opacity="0.686"/><rect x="20" y="36" width="1" height="1" fill="#5aa9f5" fill-opacity="0.290"/><rect x="21" y="36" width="22" height="1" fill="#0071e3"/><rect x="5" y="37" width="1" height="1" fill="#5aa8f6" fill-opacity="0.322"/><rect x="6" y="37" width="1" height="1" fill="#59a7f4" fill-opacity="0.851"/><rect x="7" y="37" width="13" height="1" fill="#5aa7f5"/><rect x="20" y="37" width="1" height="1" fill="#5aa7f5" fill-opacity="0.792"/><rect x="21" y="37" width="22" height="1" fill="#0071e3"/><rect x="5" y="38" width="1" height="1" fill="#59a7f4" fill-opacity="0.651"/><rect x="6" y="38" width="3" height="1" fill="#5aa7f5"/><rect x="9" y="38" width="1" height="1" fill="#5ca8f5"/><rect x="10" y="38" width="7" height="1" fill="#5aa7f5"/><rect x="17" y="38" width="2" height="1" fill="#5ca8f5"/><rect x="19" y="38" width="2" height="1" fill="#5aa7f5"/><rect x="21" y="38" width="22" height="1" fill="#0071e3"/><rect x="4" y="39" width="1" height="1" fill="#629deb" fill-opacity="0.051"/><rect x="5" y="39" width="1" height="1" fill="#59a7f4" fill-opacity="0.851"/><rect x="6" y="39" width="1" height="1" fill="#5aa7f5"/><rect x="7" y="39" width="1" height="1" fill="#63acf6"/><rect x="8" y="39" width="1" height="1" fill="#7bb8f7"/><rect x="9" y="39" width="1" height="1" fill="#8fc3f8"/><rect x="10" y="39" width="7" height="1" fill="#94c6f8"/><rect x="17" y="39" width="1" height="1" fill="#8fc3f8"/><rect x="18" y="39" width="1" height="1" fill="#79b8f7"/><rect x="19" y="39" width="1" height="1" fill="#5da9f5"/><rect x="20" y="39" width="1" height="1" fill="#5aa7f5"/><rect x="21" y="39" width="22" height="1" fill="#0071e3"/><rect x="5" y="40" width="2" height="1" fill="#5aa7f5"/><rect x="7" y="40" width="1" height="1" fill="#66aef6"/><rect x="8" y="40" width="10" height="1" fill="#94c6f8"/><rect x="18" y="40" width="1" height="1" fill="#89c0f8"/><rect x="19" y="40" width="1" height="1" fill="#5ea9f5"/><rect x="20" y="40" width="1" height="1" fill="#5aa7f5"/><rect x="21" y="40" width="22" height="1" fill="#0071e3"/><rect x="5" y="41" width="2" height="1" fill="#5aa7f5"/><rect x="7" y="41" width="1" height="1" fill="#5da8f5"/><rect x="8" y="41" width="1" height="1" fill="#7fbbf7"/><rect x="9" y="41" width="9" height="1" fill="#94c6f8"/><rect x="18" y="41" width="1" height="1" fill="#7bb8f7"/><rect x="19" y="41" width="2" height="1" fill="#5aa7f5"/><rect x="21" y="41" width="22" height="1" fill="#0071e3"/><rect x="45" y="41" width="1" height="1" fill="#58a7f7" fill-opacity="0.125"/><rect x="55" y="41" width="1" height="1" fill="#4e9deb" fill-opacity="0.051"/><rect x="56" y="41" width="1" height="1" fill="#55aaff" fill-opacity="0.035"/><rect x="5" y="42" width="3" height="1" fill="#5aa7f5"/><rect x="8" y="42" width="1" height="1" fill="#5da8f5"/><rect x="9" y="42" width="1" height="1" fill="#60aaf6"/><rect x="10" y="42" width="7" height="1" fill="#5aa7f5"/><rect x="17" y="42" width="1" height="1" fill="#60aaf6"/><rect x="18" y="42" width="1" height="1" fill="#63acf6"/><rect x="19" y="42" width="2" height="1" fill="#5aa7f5"/><rect x="21" y="42" width="22" height="1" fill="#0071e3"/><rect x="43" y="42" width="1" height="1" fill="#5aa9f5" fill-opacity="0.290"/><rect x="44" y="42" width="1" height="1" fill="#5aa8f5" fill-opacity="0.686"/><rect x="45" y="42" width="1" height="1" fill="#5aa8f5" fill-opacity="0.937"/><rect x="46" y="42" width="10" height="1" fill="#5aa7f5"/><rect x="56" y="42" width="1" height="1" fill="#59a7f4" fill-opacity="0.651"/><rect x="57" y="42" width="1" height="1" fill="#58a7f3" fill-opacity="0.251"/><rect x="5" y="43" width="16" height="1" fill="#5aa7f5"/><rect x="21" y="43" width="22" height="1" fill="#0071e3"/><rect x="43" y="43" width="1" height="1" fill="#5aa7f5" fill-opacity="0.792"/><rect x="44" y="43" width="13" height="1" fill="#5aa7f5"/><rect x="57" y="43" width="1" height="1" fill="#59a7f4" fill-opacity="0.851"/><rect x="58" y="43" width="1" height="1" fill="#5aa8f6" fill-opacity="0.322"/><rect x="5" y="44" width="16" height="1" fill="#5aa7f5"/><rect x="21" y="44" width="22" height="1" fill="#0071e3"/><rect x="43" y="44" width="2" height="1" fill="#5aa7f5"/><rect x="45" y="44" width="2" height="1" fill="#5ca8f5"/><rect x="47" y="44" width="7" height="1" fill="#5aa7f5"/><rect x="54" y="44" width="1" height="1" fill="#5ca8f5"/><rect x="55" y="44" width="3" height="1" fill="#5aa7f5"/><rect x="58" y="44" width="1" height="1" fill="#59a7f4" fill-opacity="0.651"/><rect x="5" y="45" width="16" height="1" fill="#5aa7f5"/><rect x="21" y="45" width="22" height="1" fill="#0071e3"/><rect x="43" y="45" width="1" height="1" fill="#5aa7f5"/><rect x="44" y="45" width="1" height="1" fill="#5da9f5"/><rect x="45" y="45" width="1" height="1" fill="#79b8f7"/><rect x="46" y="45" width="1" height="1" fill="#8fc3f8"/><rect x="47" y="45" width="7" height="1" fill="#94c6f8"/><rect x="54" y="45" width="1" height="1" fill="#8fc3f8"/><rect x="55" y="45" width="1" height="1" fill="#7bb8f7"/><rect x="56" y="45" width="1" height="1" fill="#63acf6"/><rect x="57" y="45" width="1" height="1" fill="#5aa7f5"/><rect x="58" y="45" width="1" height="1" fill="#59a7f4" fill-opacity="0.851"/><rect x="59" y="45" width="1" height="1" fill="#629deb" fill-opacity="0.051"/><rect x="5" y="46" width="16" height="1" fill="#5aa7f5"/><rect x="21" y="46" width="22" height="1" fill="#0071e3"/><rect x="43" y="46" width="1" height="1" fill="#5aa7f5"/><rect x="44" y="46" width="1" height="1" fill="#5ea9f5"/><rect x="45" y="46" width="1" height="1" fill="#89c0f8"/><rect x="46" y="46" width="10" height="1" fill="#94c6f8"/><rect x="56" y="46" width="1" height="1" fill="#66aef6"/><rect x="57" y="46" width="2" height="1" fill="#5aa7f5"/><rect x="5" y="47" width="16" height="1" fill="#5aa7f5"/><rect x="21" y="47" width="22" height="1" fill="#0071e3"/><rect x="43" y="47" width="2" height="1" fill="#5aa7f5"/><rect x="45" y="47" width="1" height="1" fill="#7bb8f7"/><rect x="46" y="47" width="9" height="1" fill="#94c6f8"/><rect x="55" y="47" width="1" height="1" fill="#7fbbf7"/><rect x="56" y="47" width="1" height="1" fill="#5da8f5"/><rect x="57" y="47" width="2" height="1" fill="#5aa7f5"/><rect x="5" y="48" width="16" height="1" fill="#5aa7f5"/><rect x="21" y="48" width="22" height="1" fill="#0071e3"/><rect x="43" y="48" width="2" height="1" fill="#5aa7f5"/><rect x="45" y="48" width="1" height="1" fill="#63acf6"/><rect x="46" y="48" width="1" height="1" fill="#60aaf6"/><rect x="47" y="48" width="7" height="1" fill="#5aa7f5"/><rect x="54" y="48" width="1" height="1" fill="#60aaf6"/><rect x="55" y="48" width="1" height="1" fill="#5da8f5"/><rect x="56" y="48" width="3" height="1" fill="#5aa7f5"/><rect x="5" y="49" width="16" height="1" fill="#5aa7f5"/><rect x="21" y="49" width="22" height="1" fill="#0071e3"/><rect x="43" y="49" width="16" height="1" fill="#5aa7f5"/><rect x="5" y="50" width="16" height="1" fill="#5aa7f5"/><rect x="21" y="50" width="22" height="1" fill="#0071e3"/><rect x="43" y="50" width="16" height="1" fill="#5aa7f5"/><rect x="5" y="51" width="1" height="1" fill="#4e9ae8"/><rect x="6" y="51" width="15" height="1" fill="#5aa7f5"/><rect x="21" y="51" width="22" height="1" fill="#0071e3"/><rect x="43" y="51" width="15" height="1" fill="#5aa7f5"/><rect x="58" y="51" width="1" height="1" fill="#4e9ae8"/><rect x="3" y="52" width="1" height="1" fill="#0d4ea3" fill-opacity="0.153"/><rect x="4" y="52" width="1" height="1" fill="#0d52a3" fill-opacity="0.608"/><rect x="5" y="52" width="1" height="1" fill="#0f55a6" fill-opacity="0.988"/><rect x="6" y="52" width="52" height="1" fill="#0a4fa0"/><rect x="58" y="52" width="1" height="1" fill="#0f55a6" fill-opacity="0.988"/><rect x="59" y="52" width="1" height="1" fill="#0d52a3" fill-opacity="0.608"/><rect x="60" y="52" width="1" height="1" fill="#0d4ea3" fill-opacity="0.153"/><rect x="3" y="53" width="1" height="1" fill="#0b50a1" fill-opacity="0.553"/><rect x="4" y="53" width="56" height="1" fill="#0a4fa0"/><rect x="60" y="53" width="1" height="1" fill="#0b50a1" fill-opacity="0.553"/><rect x="3" y="54" width="1" height="1" fill="#0a4ea0" fill-opacity="0.918"/><rect x="4" y="54" width="56" height="1" fill="#0a4fa0"/><rect x="60" y="54" width="1" height="1" fill="#0a4ea0" fill-opacity="0.918"/><rect x="3" y="55" width="1" height="1" fill="#0a4ea0" fill-opacity="0.918"/><rect x="4" y="55" width="56" height="1" fill="#0a4fa0"/><rect x="60" y="55" width="1" height="1" fill="#0a4ea0" fill-opacity="0.918"/><rect x="3" y="56" width="1" height="1" fill="#0b50a1" fill-opacity="0.553"/><rect x="4" y="56" width="56" height="1" fill="#0a4fa0"/><rect x="60" y="56" width="1" height="1" fill="#0b50a1" fill-opacity="0.553"/><rect x="3" y="57" width="1" height="1" fill="#0d4ea3" fill-opacity="0.153"/><rect x="4" y="57" width="1" height="1" fill="#0a4ea0" fill-opacity="0.588"/><rect x="5" y="57" width="1" height="1" fill="#0a50a0" fill-opacity="0.918"/><rect x="6" y="57" width="52" height="1" fill="#0a4fa0"/><rect x="58" y="57" width="1" height="1" fill="#0a50a0" fill-opacity="0.918"/><rect x="59" y="57" width="1" height="1" fill="#0a4ea0" fill-opacity="0.588"/><rect x="60" y="57" width="1" height="1" fill="#0d4ea3" fill-opacity="0.153"/><rect x="5" y="58" width="1" height="1" fill="#0d51a1" fill-opacity="0.149"/><rect x="58" y="58" width="1" height="1" fill="#0d51a1" fill-opacity="0.149"/></svg>